<svg xmlns="http://www.w3.org/2000/svg" width="220" height="56.697" viewBox="0 0 220 56.697"><defs><style>.a{fill:#fff200;}</style></defs><g transform="translate(-4779.744 -6865.081)"><path class="a" d="M4850.335,6883.9a5.362,5.362,0,0,1,3.754-.885,8.615,8.615,0,0,1,4.647,2.025l.54.515,4.321-5.018-.6-.455a16.669,16.669,0,0,0-9.469-2.915c-5.858,0-10.57,3.594-10.961,8.359-.421,5.12,4.277,6.683,8.052,7.939l.3.1c2.733.887,4.658,1.627,4.537,3.1-.112,1.366-1.875,2.257-4.283,2.171-2.6-.1-5.662-1.309-6.679-2.643l-.551-.724-4.04,5.072.422.447c2.074,2.2,6.6,3.8,10.751,3.8,6.245,0,11.076-3.622,11.486-8.611.458-5.588-4.484-7.122-8.087-8.24l-.225-.072c-2.885-.917-4.63-1.572-4.518-2.923a1.507,1.507,0,0,1,.607-1.037"/><path class="a" d="M4881.839,6877.172a12.139,12.139,0,0,0-7.18,2.346l1.185-14.437h-7.015l-3.219,39.2h7.015l1.282-15.614a5.9,5.9,0,0,1,5.915-5.142,4.78,4.78,0,0,1,3.586,1.424,4.219,4.219,0,0,1,1.049,3.3l-1.316,16.032h7.065l1.36-16.571a9.26,9.26,0,0,0-9.727-10.541"/><path class="a" d="M4907.986,6897.59a2.952,2.952,0,0,1-2.361.994,2.254,2.254,0,0,1-1.725-.6,3.138,3.138,0,0,1-.532-2.417l1-12.195h7.1l.468-5.7h-7.153l.7-8.564h-7.015l-.5,6.149a2.643,2.643,0,0,1-2.618,2.415h-.653l-.468,5.7h3.073l-.992,12.079a8.58,8.58,0,0,0,2.026,6.716,8.864,8.864,0,0,0,6.743,2.616,9.412,9.412,0,0,0,6.667-2.413l.449-.429-3.626-4.96Z"/><path class="a" d="M4804.976,6877.682l-.562,5.124a9.156,9.156,0,0,1-8.867,7.991,7.033,7.033,0,0,1-7.115-7.992l.561-5.123h-6.958l-.561,5.123a13.142,13.142,0,0,0,13.311,14.95,16.2,16.2,0,0,0,8.245-2.318l-.254,2.318a9.157,9.157,0,0,1-8.867,7.991,7.032,7.032,0,0,1-7.115-7.991h-6.959a13.143,13.143,0,0,0,13.312,14.949,17.107,17.107,0,0,0,16.587-14.949l2.2-20.073Z"/><path class="a" d="M4789.9,6914.96a3.9,3.9,0,0,0-3.783,3.409,3,3,0,0,0,3.036,3.409,3.9,3.9,0,0,0,3.782-3.409,3,3,0,0,0-3.035-3.409"/><path class="a" d="M4799.279,6914.96a3.9,3.9,0,0,0-3.783,3.409,3,3,0,0,0,3.036,3.409,3.9,3.9,0,0,0,3.782-3.409,3,3,0,0,0-3.035-3.409"/><path class="a" d="M4986.156,6882.805a9.155,9.155,0,0,1-8.866,7.992,7.033,7.033,0,0,1-7.116-7.992l.561-5.123h-6.958l-.561,5.123a13.143,13.143,0,0,0,13.311,14.95,16.189,16.189,0,0,0,8.245-2.318l-.254,2.318a9.156,9.156,0,0,1-8.867,7.991,7.032,7.032,0,0,1-7.115-7.991h-6.959a13.142,13.142,0,0,0,13.312,14.949,17.109,17.109,0,0,0,16.588-14.949l.467-4.266,1.732-15.807h-6.958Z"/><path class="a" d="M4995.166,6877.682l-.043.37h.642l-.219,1.861h.447l.219-1.861h.642l.043-.37Z"/><path class="a" d="M4999.29,6877.682l-.971,1.112-.694-1.094-.012-.018h-.453l-.263,2.231h.45l.188-1.6.707,1.147.981-1.141-.188,1.595h.447l.263-2.231Z"/><path class="a" d="M4821.149,6887.752a6.08,6.08,0,0,1,6.061-4.375c2.894,0,4.553,1.471,4.942,4.375Zm6.353-10.58c-7.622,0-13.2,5.546-13.876,13.8-.346,4.211.714,7.887,2.985,10.352a11.5,11.5,0,0,0,8.74,3.464,13.058,13.058,0,0,0,11.523-6.353l-4.8-3.573c-2.279,3.117-3.8,3.671-6.123,3.671-3.338,0-5.19-1.708-5.513-5.08h17.615l.146-.517a9.03,9.03,0,0,0,.253-1.7c.378-4.609-.644-8.372-2.957-10.883a10.511,10.511,0,0,0-7.992-3.185"/><path class="a" d="M4921.336,6887.752a6.078,6.078,0,0,1,6.06-4.375c2.894,0,4.554,1.471,4.942,4.375Zm6.352-10.58c-7.622,0-13.2,5.546-13.876,13.8-.346,4.211.714,7.887,2.985,10.352a11.5,11.5,0,0,0,8.74,3.464,13.059,13.059,0,0,0,11.524-6.353l-4.8-3.573c-2.279,3.117-3.8,3.671-6.123,3.671-3.338,0-5.189-1.708-5.513-5.08h17.616l.145-.517a8.918,8.918,0,0,0,.254-1.7c.378-4.609-.645-8.372-2.958-10.883a10.509,10.509,0,0,0-7.992-3.185"/><path class="a" d="M4949.472,6880.136l-.009-2.46h-6.449l-2.184,26.608h7.015l1.162-14.153c.261-3.175,2.835-6.6,6.538-6.6.071,0,.208,0,.208,0a7.873,7.873,0,0,1,3.775.86l.653-6.7a11.926,11.926,0,0,0-3.928-.523,10.13,10.13,0,0,0-6.781,2.964"/></g></svg>