<svg xmlns="http://www.w3.org/2000/svg" width="99.75" height="18.839" viewBox="0 0 99.75 18.839"><defs><style>.a{fill:#4b45ff;}.b{fill:#fff;}</style></defs><g transform="translate(-5847.995 -7257.28)"><path class="a" d="M5942.388,7276.119h-1.394c-3.514,0-6.832-1.994-9.1-5.47l-2.385-3.651a5.173,5.173,0,0,0-1.6-1.64v6.878a3.884,3.884,0,0,1-7.767,0v-5.715a3.887,3.887,0,0,1,3.883-3.884h1.474v-5.357h1.408c3.514,0,6.831,1.994,9.1,5.471l2.384,3.65a5.2,5.2,0,0,0,1.583,1.632v-6.869a3.884,3.884,0,1,1,7.768,0v5.715a3.89,3.89,0,0,1-3.884,3.884h-1.473Zm-18.362-11.071a1.474,1.474,0,0,0-1.473,1.473v5.715a1.473,1.473,0,0,0,2.947,0v-7.188Zm3.884-2.28a6.514,6.514,0,0,1,3.615,2.912l2.385,3.651a9.077,9.077,0,0,0,6.067,4.3v-3a6.524,6.524,0,0,1-3.6-2.907l-2.384-3.651a9.072,9.072,0,0,0-6.082-4.3Zm14.478,5.584h1.473a1.475,1.475,0,0,0,1.473-1.473v-5.715a1.473,1.473,0,1,0-2.946,0Z"/><path class="b" d="M5853.608,7262.4a3.835,3.835,0,0,1,2.929,1.19,4.316,4.316,0,0,1,1.119,3.082v6.1h-2.136V7267.1a2.913,2.913,0,0,0-.661-1.993,2.2,2.2,0,0,0-1.739-.753,2.73,2.73,0,0,0-2.207.956,4.269,4.269,0,0,0-.8,2.807v4.657H5848V7262.69h2.115v1.241A4.326,4.326,0,0,1,5853.608,7262.4Z"/><path class="b" d="M5869.859,7262.69v10.088h-2.116v-1.159a4.835,4.835,0,0,1-3.661,1.444,4.779,4.779,0,0,1-3.528-1.5,5.692,5.692,0,0,1,.01-7.657,4.774,4.774,0,0,1,3.518-1.506,4.836,4.836,0,0,1,3.661,1.445v-1.16Zm-5.431,8.5a3.231,3.231,0,0,0,2.319-.966,3.614,3.614,0,0,0,0-4.983,3.231,3.231,0,0,0-2.319-.966,3.181,3.181,0,0,0-2.359.945,3.839,3.839,0,0,0,0,5.024A3.18,3.18,0,0,0,5864.428,7271.192Z"/><path class="b" d="M5871.608,7270.073l2.115-.447a1.663,1.663,0,0,0,.783,1.281,3.226,3.226,0,0,0,1.739.427,2.551,2.551,0,0,0,1.454-.366,1.127,1.127,0,0,0,.539-.976q0-.9-1.362-1.2l-2.2-.447q-2.745-.611-2.746-2.746a2.836,2.836,0,0,1,1.088-2.309,4.458,4.458,0,0,1,2.9-.885,4.768,4.768,0,0,1,2.837.8,3.4,3.4,0,0,1,1.413,2.1l-2.013.427a1.791,1.791,0,0,0-.732-1.2,2.584,2.584,0,0,0-1.566-.447,2.055,2.055,0,0,0-1.333.376,1.175,1.175,0,0,0-.457.946q0,.853,1.22,1.139l2.4.528a3.738,3.738,0,0,1,1.932.966,2.408,2.408,0,0,1,.692,1.76,2.81,2.81,0,0,1-1.16,2.4,5.1,5.1,0,0,1-3.091.854,5.669,5.669,0,0,1-3.03-.763A2.909,2.909,0,0,1,5871.608,7270.073Z"/><path class="b" d="M5887.594,7262.4a3.835,3.835,0,0,1,2.929,1.19,4.32,4.32,0,0,1,1.118,3.082v6.1h-2.135V7267.1a2.913,2.913,0,0,0-.661-1.993,2.2,2.2,0,0,0-1.739-.753,2.73,2.73,0,0,0-2.207.956,4.264,4.264,0,0,0-.8,2.807v4.657h-2.116V7262.69h2.116v1.241A4.326,4.326,0,0,1,5887.594,7262.4Z"/><path class="b" d="M5903.845,7262.69v10.088h-2.116v-1.159a4.834,4.834,0,0,1-3.661,1.444,4.778,4.778,0,0,1-3.528-1.5,5.692,5.692,0,0,1,.01-7.657,4.774,4.774,0,0,1,3.518-1.506,4.835,4.835,0,0,1,3.661,1.445v-1.16Zm-5.431,8.5a3.231,3.231,0,0,0,2.319-.966,3.614,3.614,0,0,0,0-4.983,3.231,3.231,0,0,0-2.319-.966,3.178,3.178,0,0,0-2.359.945,3.839,3.839,0,0,0,0,5.024A3.177,3.177,0,0,0,5898.414,7271.192Z"/><path class="b" d="M5916.068,7262.67l-4.352,10.108h-2.258l-4.332-10.108h2.3l3.173,7.586,3.173-7.586Z"/></g></svg>